<mxfile host="app.diagrams.net" modified="2023-01-22T19:39:08.495Z" agent="5.0 (Windows NT 10.0; Win64; x64) AppleWebKit/537.36 (KHTML, like Gecko) Chrome/109.0.0.0 Safari/537.36" etag="UApbZljgYZgXTqW4TWJu" compressed="false" version="20.8.10" type="github">
  <diagram name="PÃ¡gina-1" id="nMeH4zjYAEHnZj2noGMt">
    <mxGraphModel dx="1500" dy="733" grid="1" gridSize="10" guides="1" tooltips="1" connect="1" arrows="1" fold="1" page="1" pageScale="1" pageWidth="827" pageHeight="1169" math="0" shadow="0">
      <root>
        <mxCell id="0" />
        <mxCell id="1" parent="0" />
        <mxCell id="CVxc3YgAbbyCYV16vRNi-41" value="" style="edgeStyle=orthogonalEdgeStyle;rounded=0;orthogonalLoop=1;jettySize=auto;html=1;" parent="1" source="CVxc3YgAbbyCYV16vRNi-1" target="CVxc3YgAbbyCYV16vRNi-29" edge="1">
          <mxGeometry relative="1" as="geometry" />
        </mxCell>
        <mxCell id="CVxc3YgAbbyCYV16vRNi-1" value="inicio" style="ellipse;whiteSpace=wrap;html=1;" parent="1" vertex="1">
          <mxGeometry x="375" y="10" width="76" height="40" as="geometry" />
        </mxCell>
        <mxCell id="CVxc3YgAbbyCYV16vRNi-2" value="" style="shape=datastore;whiteSpace=wrap;html=1;" parent="1" vertex="1">
          <mxGeometry x="790" y="435" width="60" height="60" as="geometry" />
        </mxCell>
        <mxCell id="CVxc3YgAbbyCYV16vRNi-15" value="" style="endArrow=classic;startArrow=classic;html=1;rounded=0;exitX=1.01;exitY=0.308;exitDx=0;exitDy=0;exitPerimeter=0;entryX=0;entryY=0.7;entryDx=0;entryDy=0;" parent="1" source="CVxc3YgAbbyCYV16vRNi-26" target="CVxc3YgAbbyCYV16vRNi-2" edge="1">
          <mxGeometry width="50" height="50" relative="1" as="geometry">
            <mxPoint x="700" y="188" as="sourcePoint" />
            <mxPoint x="770" y="369" as="targetPoint" />
          </mxGeometry>
        </mxCell>
        <mxCell id="CVxc3YgAbbyCYV16vRNi-61" style="edgeStyle=orthogonalEdgeStyle;rounded=0;orthogonalLoop=1;jettySize=auto;html=1;entryX=0;entryY=0.5;entryDx=0;entryDy=0;" parent="1" source="CVxc3YgAbbyCYV16vRNi-25" target="CVxc3YgAbbyCYV16vRNi-26" edge="1">
          <mxGeometry relative="1" as="geometry" />
        </mxCell>
        <mxCell id="CVxc3YgAbbyCYV16vRNi-25" value="&lt;p style=&quot;margin:0px;margin-top:4px;text-align:center;&quot;&gt;&lt;b&gt;validar_datos&lt;/b&gt;&lt;/p&gt;&lt;hr size=&quot;1&quot;&gt;&lt;p style=&quot;margin:0px;margin-left:4px;&quot;&gt;+ field: objeto=optener_datos&lt;/p&gt;&lt;p style=&quot;margin:0px;margin-left:4px;&quot;&gt;+ field: var=optener_letras&lt;/p&gt;&lt;p style=&quot;margin:0px;margin-left:4px;&quot;&gt;+ field var=optener_img&lt;/p&gt;&lt;p style=&quot;margin:0px;margin-left:4px;&quot;&gt;&lt;br&gt;&lt;/p&gt;&lt;p style=&quot;margin:0px;margin-left:4px;&quot;&gt;&lt;br&gt;&lt;/p&gt;&lt;hr size=&quot;1&quot;&gt;&lt;p style=&quot;margin:0px;margin-left:4px;&quot;&gt;+ method(): validar(numeros) int&lt;/p&gt;&lt;p style=&quot;margin:0px;margin-left:4px;&quot;&gt;+ method(): validar(letras) string&lt;/p&gt;&lt;p style=&quot;margin:0px;margin-left:4px;&quot;&gt;+ method(): validar(imagen)&lt;/p&gt;" style="verticalAlign=top;align=left;overflow=fill;fontSize=12;fontFamily=Helvetica;html=1;" parent="1" vertex="1">
          <mxGeometry x="323" y="430" width="180" height="170" as="geometry" />
        </mxCell>
        <mxCell id="CVxc3YgAbbyCYV16vRNi-59" style="edgeStyle=orthogonalEdgeStyle;rounded=0;orthogonalLoop=1;jettySize=auto;html=1;entryX=0.5;entryY=1;entryDx=0;entryDy=0;" parent="1" source="CVxc3YgAbbyCYV16vRNi-26" target="CVxc3YgAbbyCYV16vRNi-35" edge="1">
          <mxGeometry relative="1" as="geometry">
            <Array as="points">
              <mxPoint x="635" y="730" />
              <mxPoint x="135" y="730" />
            </Array>
          </mxGeometry>
        </mxCell>
        <mxCell id="CVxc3YgAbbyCYV16vRNi-26" value="&lt;p style=&quot;margin:0px;margin-top:4px;text-align:center;&quot;&gt;&lt;br&gt;clase_coneccion&lt;/p&gt;&lt;hr size=&quot;1&quot;&gt;&lt;p style=&quot;margin:0px;margin-left:4px;&quot;&gt;+&amp;nbsp; Type try,cath: objec=localhost&lt;/p&gt;&lt;hr size=&quot;1&quot;&gt;&lt;p style=&quot;margin:0px;margin-left:4px;&quot;&gt;- method1: create()&lt;br&gt;- method2: update()&lt;/p&gt;&lt;p style=&quot;margin:0px;margin-left:4px;&quot;&gt;- method3: delete()&lt;/p&gt;&lt;p style=&quot;margin:0px;margin-left:4px;&quot;&gt;- method4: read()&lt;/p&gt;&lt;p style=&quot;margin:0px;margin-left:4px;&quot;&gt;&lt;br&gt;&lt;/p&gt;" style="verticalAlign=top;align=left;overflow=fill;fontSize=12;fontFamily=Helvetica;html=1;" parent="1" vertex="1">
          <mxGeometry x="540" y="430" width="190" height="160" as="geometry" />
        </mxCell>
        <mxCell id="oftxd1jnnatvB49pABUx-8" style="edgeStyle=orthogonalEdgeStyle;rounded=0;orthogonalLoop=1;jettySize=auto;html=1;exitX=0.5;exitY=1;exitDx=0;exitDy=0;entryX=0.75;entryY=0;entryDx=0;entryDy=0;" edge="1" parent="1" source="CVxc3YgAbbyCYV16vRNi-27" target="CVxc3YgAbbyCYV16vRNi-35">
          <mxGeometry relative="1" as="geometry" />
        </mxCell>
        <mxCell id="CVxc3YgAbbyCYV16vRNi-27" value="Objec=localhost" style="html=1;" parent="1" vertex="1">
          <mxGeometry x="358" y="310" width="102" height="50" as="geometry" />
        </mxCell>
        <mxCell id="CVxc3YgAbbyCYV16vRNi-28" value="bool=leer si existe db" style="rounded=0;whiteSpace=wrap;html=1;" parent="1" vertex="1">
          <mxGeometry x="353" y="75" width="120" height="35" as="geometry" />
        </mxCell>
        <mxCell id="CVxc3YgAbbyCYV16vRNi-31" style="edgeStyle=orthogonalEdgeStyle;rounded=0;orthogonalLoop=1;jettySize=auto;html=1;exitX=0.5;exitY=1;exitDx=0;exitDy=0;entryX=0.5;entryY=0;entryDx=0;entryDy=0;" parent="1" source="CVxc3YgAbbyCYV16vRNi-29" target="CVxc3YgAbbyCYV16vRNi-30" edge="1">
          <mxGeometry relative="1" as="geometry" />
        </mxCell>
        <mxCell id="oftxd1jnnatvB49pABUx-3" style="edgeStyle=orthogonalEdgeStyle;rounded=0;orthogonalLoop=1;jettySize=auto;html=1;exitX=1;exitY=0.5;exitDx=0;exitDy=0;" edge="1" parent="1" source="CVxc3YgAbbyCYV16vRNi-29">
          <mxGeometry relative="1" as="geometry">
            <mxPoint x="481.47058823529414" y="155.11764705882354" as="targetPoint" />
          </mxGeometry>
        </mxCell>
        <mxCell id="oftxd1jnnatvB49pABUx-4" style="edgeStyle=orthogonalEdgeStyle;rounded=0;orthogonalLoop=1;jettySize=auto;html=1;exitX=0;exitY=0.5;exitDx=0;exitDy=0;entryX=0.75;entryY=0;entryDx=0;entryDy=0;" edge="1" parent="1" source="CVxc3YgAbbyCYV16vRNi-29" target="CVxc3YgAbbyCYV16vRNi-35">
          <mxGeometry relative="1" as="geometry" />
        </mxCell>
        <mxCell id="CVxc3YgAbbyCYV16vRNi-29" value="si bool=true" style="rhombus;whiteSpace=wrap;html=1;" parent="1" vertex="1">
          <mxGeometry x="346" y="120" width="135" height="70" as="geometry" />
        </mxCell>
        <mxCell id="CVxc3YgAbbyCYV16vRNi-33" value="" style="edgeStyle=orthogonalEdgeStyle;rounded=0;orthogonalLoop=1;jettySize=auto;html=1;" parent="1" source="CVxc3YgAbbyCYV16vRNi-30" target="CVxc3YgAbbyCYV16vRNi-27" edge="1">
          <mxGeometry relative="1" as="geometry" />
        </mxCell>
        <mxCell id="CVxc3YgAbbyCYV16vRNi-30" value="crear DB con instrucicones guardas" style="rounded=0;whiteSpace=wrap;html=1;" parent="1" vertex="1">
          <mxGeometry x="353" y="230" width="120" height="60" as="geometry" />
        </mxCell>
        <mxCell id="CVxc3YgAbbyCYV16vRNi-60" style="edgeStyle=orthogonalEdgeStyle;rounded=0;orthogonalLoop=1;jettySize=auto;html=1;entryX=0;entryY=0.25;entryDx=0;entryDy=0;" parent="1" source="CVxc3YgAbbyCYV16vRNi-35" target="CVxc3YgAbbyCYV16vRNi-25" edge="1">
          <mxGeometry relative="1" as="geometry" />
        </mxCell>
        <mxCell id="CVxc3YgAbbyCYV16vRNi-35" value="fronteng" style="swimlane;" parent="1" vertex="1">
          <mxGeometry y="430" width="270" height="200" as="geometry" />
        </mxCell>
        <mxCell id="CVxc3YgAbbyCYV16vRNi-53" value="input img" style="text;html=1;align=center;verticalAlign=middle;resizable=0;points=[];autosize=1;strokeColor=none;fillColor=none;" parent="CVxc3YgAbbyCYV16vRNi-35" vertex="1">
          <mxGeometry x="15" y="40" width="70" height="30" as="geometry" />
        </mxCell>
        <mxCell id="CVxc3YgAbbyCYV16vRNi-56" value="input string" style="text;html=1;align=center;verticalAlign=middle;resizable=0;points=[];autosize=1;strokeColor=none;fillColor=none;" parent="CVxc3YgAbbyCYV16vRNi-35" vertex="1">
          <mxGeometry x="15" y="100" width="80" height="30" as="geometry" />
        </mxCell>
        <mxCell id="CVxc3YgAbbyCYV16vRNi-58" value="input nota" style="text;html=1;align=center;verticalAlign=middle;resizable=0;points=[];autosize=1;strokeColor=none;fillColor=none;" parent="CVxc3YgAbbyCYV16vRNi-35" vertex="1">
          <mxGeometry x="15" y="130" width="80" height="30" as="geometry" />
        </mxCell>
        <mxCell id="oftxd1jnnatvB49pABUx-9" value="create()" style="rounded=1;html=1;shadow=0;dashed=0;whiteSpace=wrap;fontSize=10;fillColor=#666666;align=center;strokeColor=#4D4D4D;fontColor=#ffffff;" vertex="1" parent="CVxc3YgAbbyCYV16vRNi-35">
          <mxGeometry x="150" y="40" width="105.5" height="16.88" as="geometry" />
        </mxCell>
        <mxCell id="oftxd1jnnatvB49pABUx-10" value="update()" style="rounded=1;html=1;shadow=0;dashed=0;whiteSpace=wrap;fontSize=10;fillColor=#666666;align=center;strokeColor=#4D4D4D;fontColor=#ffffff;" vertex="1" parent="CVxc3YgAbbyCYV16vRNi-35">
          <mxGeometry x="150" y="70" width="105.5" height="16.88" as="geometry" />
        </mxCell>
        <mxCell id="oftxd1jnnatvB49pABUx-11" value="read()" style="rounded=1;html=1;shadow=0;dashed=0;whiteSpace=wrap;fontSize=10;fillColor=#666666;align=center;strokeColor=#4D4D4D;fontColor=#ffffff;" vertex="1" parent="CVxc3YgAbbyCYV16vRNi-35">
          <mxGeometry x="150" y="100" width="105.5" height="16.88" as="geometry" />
        </mxCell>
        <mxCell id="oftxd1jnnatvB49pABUx-12" value="delete()" style="rounded=1;html=1;shadow=0;dashed=0;whiteSpace=wrap;fontSize=10;fillColor=#666666;align=center;strokeColor=#4D4D4D;fontColor=#ffffff;" vertex="1" parent="CVxc3YgAbbyCYV16vRNi-35">
          <mxGeometry x="150" y="130" width="105.5" height="16.88" as="geometry" />
        </mxCell>
        <mxCell id="CVxc3YgAbbyCYV16vRNi-55" value="input int" style="text;html=1;align=center;verticalAlign=middle;resizable=0;points=[];autosize=1;strokeColor=none;fillColor=none;" parent="1" vertex="1">
          <mxGeometry x="5" y="495" width="70" height="30" as="geometry" />
        </mxCell>
        <mxCell id="oftxd1jnnatvB49pABUx-1" value="&lt;div&gt;create database agenda&lt;/div&gt;&lt;div&gt;go&lt;/div&gt;&lt;div&gt;create table agenda (&lt;/div&gt;&lt;div&gt;ID int identity primary key,&lt;/div&gt;&lt;div&gt;nombre varchar(30),&lt;/div&gt;&lt;div&gt;apellido varchar(30),&lt;/div&gt;&lt;div&gt;numero int,&lt;/div&gt;&lt;div&gt;nota text,&lt;/div&gt;&lt;div&gt;fecha date,&lt;/div&gt;&lt;div&gt;imagen image&lt;/div&gt;&lt;div&gt;);&lt;/div&gt;" style="shape=process;whiteSpace=wrap;html=1;backgroundOutline=1;" vertex="1" parent="1">
          <mxGeometry x="530" y="170" width="270" height="155" as="geometry" />
        </mxCell>
        <mxCell id="oftxd1jnnatvB49pABUx-2" value="" style="endArrow=classic;startArrow=classic;html=1;rounded=0;" edge="1" parent="1">
          <mxGeometry width="50" height="50" relative="1" as="geometry">
            <mxPoint x="473" y="274" as="sourcePoint" />
            <mxPoint x="533" y="274" as="targetPoint" />
          </mxGeometry>
        </mxCell>
      </root>
    </mxGraphModel>
  </diagram>
</mxfile>
